<svg id="圖層_1" data-name="圖層 1" xmlns="http://www.w3.org/2000/svg" viewBox="0 0 1024 1024"><defs><style>.cls-1{fill:#7b7c6e;}</style></defs><path class="cls-1" d="M410.7,232.45s-46.34,20.6-56.64,49.77-1.72,51.49,22.31,58.36S439.88,332,439.88,332s37.76-6.87,39.47-41.19-17.16-51.5-17.16-51.5S450.18,215.29,410.7,232.45Z"/><path class="cls-1" d="M486.22,333.71S445,366.33,467.34,385.2s106.41-6.86,106.41-6.86,65.23-25.75,39.48-65.22S566.52,282,540,293.43C510.25,306.25,501.67,323.42,486.22,333.71Z"/><path class="cls-1" d="M685.32,261.63c-3,0-18.4,0-21.39.24-14.2,1.22-47.58,8.4-28.39,49.53,24,51.49,58.36,70.37,58.36,70.37s39.47,22.31,66.94-12,13.73-92.69,13.73-92.69-5.72-12-50.14-15.45C702.48,259.91,692.18,261.63,685.32,261.63Z"/><path class="cls-1" d="M370.37,466.73c4-4.52,7.6-20.34,10.29-25.74,4.06-8.13,11.63-21.57,32.62-25.75,12.3-2.45,29.17-1.72,41.19,1.72,7.53,2.15,21.26,7.3,25.74,13.73,9.59,13.75,18.32,42.91-10.3,42.91-25.74,0-29.17,17.16-36,27.46-12.77,19.16-43.77,36.9-59.21,35.18S322,526,342.05,495.05C351.49,480.46,363.3,474.7,370.37,466.73Z"/><path class="cls-1" d="M493.09,491.62c-2.47,4.39-10,12-13.74,15.45-8.92,8.19-13.63,22.6-6.86,54.92,7.72,36.9,19.74,42,19.74,42s16.3,18,40.33-6a393.31,393.31,0,0,0,32.09-35.92,40.71,40.71,0,0,0,6.67-12.56c3.94-12.16,11.87-31.33-3.57-50.21-9.26-11.31-16-25.39-18.7-30.47a23.52,23.52,0,0,0-20.39-12.76c-7.16-.06-15.28,3.24-21.84,14.91Z"/><path class="cls-1" d="M642.41,495.05c-5.15,0-13.73,0-22.31,1.72-9.81,2-22.32,3.43-27.47,24-6.86,27.46-1.71,34.32,6.87,44.62s20.6,7.71,34.33,20.16,41.19,9,46.34,3.87c3.46-3.46,13.11-20.85,19.07-31.9a70.47,70.47,0,0,0,8.55-29.19c.54-9.13-.65-19.15-7-24.73C690.36,494.53,657.94,495.05,642.41,495.05Z"/><path class="cls-1" d="M225.33,598S172,611.76,203,646.09s37.83,36,37.83,36,24,13.73,46.34-6.86,61.79-51.49,61.79-51.49,17.17-17.31,0-34.4-32.61-22.24-51.49-11.94S225.33,598,225.33,598Z"/><path class="cls-1" d="M506.82,642.66s-24.58-27.46-52.63,0-26.33,63.5-26.33,63.5-1.71,25.75,34.33,44.63,52.3,10.3,65.62,0,16.77-17.17,25.35-29.18,8.58-32.61-12-46.34S506.82,642.66,506.82,642.66Z"/><path class="cls-1" d="M570.32,726.76s-22.31,73.8,22.31,70.37,33.47-9.44,71.23-9.44S712.74,762,712.74,762s6.83-29.47,0-58.1-47.16-26.06-62.61-10.61c-14.81,14.81-48.06,8.58-48.06,8.58S580.62,702.73,570.32,726.76Z"/><path class="cls-1" d="M695.21,607.72a43,43,0,0,1-6.52,6.69c-8.18,6.76-26,25.16.06,40.26,32.61,18.88,60.07-3.43,60.07-3.43s22.31-12,24-37.76S754,584.3,738.52,584.3C725.5,584.3,711.15,587.34,695.21,607.72Z"/></svg>